MutatorSansInstance_400-200.ufo
<glyph name="comma" format="2">
  <advance width="222"/>
  <unicode hex="002C"/>
  <outline>
    <contour>
      <point x="164" y="0" type="line"/>
      <point x="164" y="204" type="line"/>
      <point x="58" y="204" type="line"/>
      <point x="58" y="0" type="line"/>
      <point x="109" y="-11" type="line"/>
      <point x="99" y="12" type="line"/>
      <point x="77" y="-113" type="line"/>
      <point x="113" y="-115" type="line"/>
    </contour>
  </outline>
</glyph>
<glyph name="A" format="2">
  <advance width="676"/>
  <unicode hex="0041"/>
  <outline>
    <contour>
      <point x="22" y="0" type="line"/>
      <point x="150" y="0" type="line"/>
      <point x="324" y="740" type="line"/>
      <point x="212" y="740" type="line"/>
    </contour>
    <contour>
      <point x="119" y="154" type="line"/>
      <point x="531" y="154" type="line"/>
      <point x="531" y="259" type="line"/>
      <point x="119" y="259" type="line"/>
    </contour>
    <contour>
      <point x="480" y="0" type="line"/>
      <point x="654" y="0" type="line"/>
      <point x="462" y="740" type="line"/>
      <point x="299" y="740" type="line"/>
    </contour>
    <contour>
      <point x="247" y="613" type="line"/>
      <point x="406" y="613" type="line"/>
      <point x="406" y="740" type="line"/>
      <point x="247" y="740" type="line"/>
    </contour>
  </outline>
</glyph>
<glyph name="B" format="2">
  <advance width="685"/>
  <unicode hex="0042"/>
  <outline>
    <contour>
      <point x="58" y="0" type="line"/>
      <point x="214" y="0" type="line"/>
      <point x="214" y="740" type="line"/>
      <point x="58" y="740" type="line"/>
    </contour>
    <contour>
      <point x="181" y="338" type="line"/>
      <point x="379" y="338" type="line" smooth="yes"/>
      <point x="457" y="338"/>
      <point x="497" y="297"/>
      <point x="497" y="226" type="curve" smooth="yes"/>
      <point x="497" y="156"/>
      <point x="455" y="117"/>
      <point x="375" y="117" type="curve" smooth="yes"/>
      <point x="181" y="117" type="line"/>
      <point x="181" y="0" type="line"/>
      <point x="399" y="0" type="line" smooth="yes"/>
      <point x="593" y="0"/>
      <point x="651" y="85"/>
      <point x="651" y="202" type="curve" smooth="yes"/>
      <point x="651" y="306"/>
      <point x="597" y="377"/>
      <point x="487" y="390" type="curve"/>
      <point x="489" y="360" type="line"/>
      <point x="574" y="377"/>
      <point x="629" y="441"/>
      <point x="629" y="535" type="curve" smooth="yes"/>
      <point x="629" y="655"/>
      <point x="572" y="740"/>
      <point x="378" y="740" type="curve" smooth="yes"/>
      <point x="181" y="740" type="line"/>
      <point x="181" y="628" type="line"/>
      <point x="359" y="628" type="line" smooth="yes"/>
      <point x="445" y="628"/>
      <point x="478" y="587"/>
      <point x="478" y="520" type="curve" smooth="yes"/>
      <point x="478" y="449"/>
      <point x="437" y="410"/>
      <point x="359" y="410" type="curve" smooth="yes"/>
      <point x="181" y="410" type="line"/>
    </contour>
  </outline>
</glyph>
<glyph name="C" format="2">
  <advance width="769"/>
  <unicode hex="0043"/>
  <outline>
    <contour>
      <point x="575" y="310" type="line"/>
      <point x="562" y="167"/>
      <point x="500" y="117"/>
      <point x="400" y="117" type="curve" smooth="yes"/>
      <point x="379" y="117" type="line" smooth="yes"/>
      <point x="270" y="117"/>
      <point x="205" y="184"/>
      <point x="205" y="372" type="curve" smooth="yes"/>
      <point x="205" y="559"/>
      <point x="270" y="623"/>
      <point x="379" y="623" type="curve" smooth="yes"/>
      <point x="400" y="623" type="line" smooth="yes"/>
      <point x="499" y="623"/>
      <point x="561" y="576"/>
      <point x="575" y="436" type="curve"/>
      <point x="725" y="452" type="line"/>
      <point x="703" y="660"/>
      <point x="584" y="750"/>
      <point x="407" y="750" type="curve" smooth="yes"/>
      <point x="372" y="750" type="line" smooth="yes"/>
      <point x="170" y="750"/>
      <point x="43" y="638"/>
      <point x="43" y="372" type="curve" smooth="yes"/>
      <point x="43" y="105"/>
      <point x="170" y="-10"/>
      <point x="372" y="-10" type="curve" smooth="yes"/>
      <point x="407" y="-10" type="line" smooth="yes"/>
      <point x="585" y="-10"/>
      <point x="704" y="83"/>
      <point x="726" y="294" type="curve"/>
    </contour>
  </outline>
</glyph>
<glyph name="D" format="2">
  <advance width="703"/>
  <unicode hex="0044"/>
  <outline>
    <contour>
      <point x="58" y="0" type="line"/>
      <point x="208" y="0" type="line"/>
      <point x="208" y="740" type="line"/>
      <point x="58" y="740" type="line"/>
    </contour>
    <contour>
      <point x="177" y="617" type="line"/>
      <point x="305" y="617" type="line" smooth="yes"/>
      <point x="423" y="617"/>
      <point x="499" y="559"/>
      <point x="499" y="372" type="curve" smooth="yes"/>
      <point x="499" y="184"/>
      <point x="423" y="123"/>
      <point x="305" y="123" type="curve" smooth="yes"/>
      <point x="174" y="123" type="line"/>
      <point x="174" y="0" type="line"/>
      <point x="312" y="0" type="line" smooth="yes"/>
      <point x="522" y="0"/>
      <point x="660" y="107"/>
      <point x="660" y="372" type="curve" smooth="yes"/>
      <point x="660" y="636"/>
      <point x="522" y="740"/>
      <point x="312" y="740" type="curve" smooth="yes"/>
      <point x="177" y="740" type="line"/>
    </contour>
  </outline>
</glyph>
<glyph name="E" format="2">
  <advance width="603"/>
  <unicode hex="0045"/>
  <anchor x="310" y="784" name="top"/>
  <outline>
    <contour>
      <point x="61" y="0" type="line"/>
      <point x="211" y="0" type="line"/>
      <point x="211" y="740" type="line"/>
      <point x="61" y="740" type="line"/>
    </contour>
    <contour>
      <point x="109" y="610" type="line"/>
      <point x="555" y="610" type="line"/>
      <point x="555" y="740" type="line"/>
      <point x="109" y="740" type="line"/>
    </contour>
    <contour>
      <point x="109" y="0" type="line"/>
      <point x="555" y="0" type="line"/>
      <point x="555" y="130" type="line"/>
      <point x="109" y="130" type="line"/>
    </contour>
    <contour>
      <point x="109" y="326" type="line"/>
      <point x="503" y="326" type="line"/>
      <point x="503" y="416" type="line"/>
      <point x="109" y="416" type="line"/>
    </contour>
  </outline>
</glyph>
<glyph name="F" format="2">
  <advance width="606"/>
  <unicode hex="0046"/>
  <outline>
    <contour>
      <point x="58" y="0" type="line"/>
      <point x="218" y="0" type="line"/>
      <point x="218" y="740" type="line"/>
      <point x="58" y="740" type="line"/>
    </contour>
    <contour>
      <point x="109" y="617" type="line"/>
      <point x="548" y="617" type="line"/>
      <point x="548" y="740" type="line"/>
      <point x="109" y="740" type="line"/>
    </contour>
    <contour>
      <point x="109" y="293" type="line"/>
      <point x="523" y="293" type="line"/>
      <point x="523" y="400" type="line"/>
      <point x="109" y="400" type="line"/>
    </contour>
  </outline>
</glyph>
<glyph name="G" format="2">
  <advance width="787"/>
  <unicode hex="0047"/>
  <outline>
    <contour>
      <point x="362" y="303" type="line"/>
      <point x="604" y="303" type="line"/>
      <point x="604" y="216" type="line"/>
      <point x="659" y="0" type="line"/>
      <point x="730" y="0" type="line"/>
      <point x="730" y="365" type="line"/>
      <point x="362" y="365" type="line"/>
    </contour>
    <contour>
      <point x="587" y="320" type="line"/>
      <point x="575" y="168"/>
      <point x="510" y="117"/>
      <point x="406" y="117" type="curve" smooth="yes"/>
      <point x="379" y="117" type="line" smooth="yes"/>
      <point x="270" y="117"/>
      <point x="205" y="184"/>
      <point x="205" y="372" type="curve" smooth="yes"/>
      <point x="205" y="559"/>
      <point x="276" y="623"/>
      <point x="388" y="623" type="curve" smooth="yes"/>
      <point x="415" y="623" type="line" smooth="yes"/>
      <point x="515" y="623"/>
      <point x="574" y="576"/>
      <point x="587" y="436" type="curve"/>
      <point x="728" y="452" type="line"/>
      <point x="705" y="660"/>
      <point x="593" y="750"/>
      <point x="417" y="750" type="curve" smooth="yes"/>
      <point x="376" y="750" type="line" smooth="yes"/>
      <point x="174" y="750"/>
      <point x="43" y="638"/>
      <point x="43" y="372" type="curve" smooth="yes"/>
      <point x="43" y="105"/>
      <point x="170" y="-10"/>
      <point x="372" y="-10" type="curve" smooth="yes"/>
      <point x="399" y="-10" type="line" smooth="yes"/>
      <point x="575" y="-10"/>
      <point x="685" y="83"/>
      <point x="702" y="305" type="curve"/>
    </contour>
  </outline>
</glyph>
<glyph name="H" format="2">
  <advance width="706"/>
  <unicode hex="0048"/>
  <outline>
    <contour>
      <point x="58" y="0" type="line"/>
      <point x="218" y="0" type="line"/>
      <point x="218" y="740" type="line"/>
      <point x="58" y="740" type="line"/>
    </contour>
    <contour>
      <point x="119" y="305" type="line"/>
      <point x="588" y="305" type="line"/>
      <point x="588" y="431" type="line"/>
      <point x="119" y="431" type="line"/>
    </contour>
    <contour>
      <point x="489" y="0" type="line"/>
      <point x="649" y="0" type="line"/>
      <point x="649" y="740" type="line"/>
      <point x="489" y="740" type="line"/>
    </contour>
  </outline>
</glyph>
<glyph name="I" format="2">
  <advance width="526"/>
  <unicode hex="0049"/>
  <outline>
    <contour>
      <point x="184" y="0" type="line"/>
      <point x="344" y="0" type="line"/>
      <point x="344" y="740" type="line"/>
      <point x="184" y="740" type="line"/>
    </contour>
    <contour>
      <point x="58" y="607" type="line"/>
      <point x="468" y="607" type="line"/>
      <point x="468" y="740" type="line"/>
      <point x="58" y="740" type="line"/>
    </contour>
    <contour>
      <point x="58" y="0" type="line"/>
      <point x="468" y="0" type="line"/>
      <point x="468" y="133" type="line"/>
      <point x="58" y="133" type="line"/>
    </contour>
  </outline>
</glyph>
<glyph name="J" format="2">
  <advance width="571"/>
  <unicode hex="004A"/>
  <outline>
    <contour>
      <point x="183" y="-10" type="curve" smooth="yes"/>
      <point x="388" y="-10"/>
      <point x="513" y="80"/>
      <point x="513" y="293" type="curve" smooth="yes"/>
      <point x="513" y="740" type="line"/>
      <point x="352" y="740" type="line"/>
      <point x="352" y="317" type="line" smooth="yes"/>
      <point x="352" y="175"/>
      <point x="285" y="126"/>
      <point x="172" y="126" type="curve" smooth="yes"/>
      <point x="142" y="126"/>
      <point x="113" y="129"/>
      <point x="84" y="136" type="curve"/>
      <point x="58" y="6" type="line"/>
      <point x="95" y="-5"/>
      <point x="137" y="-10"/>
    </contour>
  </outline>
</glyph>
<glyph name="K" format="2">
  <advance width="695"/>
  <unicode hex="004B"/>
  <outline>
    <contour>
      <point x="58" y="0" type="line"/>
      <point x="218" y="0" type="line"/>
      <point x="218" y="740" type="line"/>
      <point x="58" y="740" type="line"/>
    </contour>
    <contour>
      <point x="181" y="321" type="line"/>
      <point x="251" y="321" type="line"/>
      <point x="482" y="0" type="line"/>
      <point x="671" y="0" type="line"/>
      <point x="380" y="430" type="line"/>
      <point x="262" y="398" type="line"/>
      <point x="181" y="398" type="line"/>
    </contour>
    <contour>
      <point x="238" y="377" type="line"/>
      <point x="352" y="326" type="line"/>
      <point x="665" y="740" type="line"/>
      <point x="490" y="740" type="line"/>
    </contour>
  </outline>
</glyph>
<glyph name="L" format="2">
  <advance width="556"/>
  <unicode hex="004C"/>
  <outline>
    <contour>
      <point x="58" y="0" type="line"/>
      <point x="218" y="0" type="line"/>
      <point x="218" y="740" type="line"/>
      <point x="58" y="740" type="line"/>
    </contour>
    <contour>
      <point x="109" y="0" type="line"/>
      <point x="528" y="0" type="line"/>
      <point x="528" y="124" type="line"/>
      <point x="109" y="124" type="line"/>
    </contour>
  </outline>
</glyph>
<glyph name="M" format="2">
  <advance width="758"/>
  <unicode hex="004D"/>
  <outline>
    <contour>
      <point x="58" y="0" type="line"/>
      <point x="187" y="0" type="line"/>
      <point x="187" y="740" type="line"/>
      <point x="58" y="740" type="line"/>
    </contour>
    <contour>
      <point x="701" y="0" type="line"/>
      <point x="701" y="740" type="line"/>
      <point x="571" y="740" type="line"/>
      <point x="571" y="0" type="line"/>
    </contour>
    <contour>
      <point x="637" y="562" type="line"/>
      <point x="571" y="740" type="line"/>
      <point x="364" y="416" type="line"/>
      <point x="394" y="416" type="line"/>
      <point x="187" y="740" type="line"/>
      <point x="122" y="562" type="line"/>
      <point x="353" y="221" type="line"/>
      <point x="406" y="221" type="line"/>
    </contour>
  </outline>
</glyph>
<glyph name="N" format="2">
  <advance width="709"/>
  <unicode hex="004E"/>
  <outline>
    <contour>
      <point x="58" y="0" type="line"/>
      <point x="185" y="0" type="line"/>
      <point x="185" y="740" type="line"/>
      <point x="58" y="740" type="line"/>
    </contour>
    <contour>
      <point x="107" y="592" type="line"/>
      <point x="524" y="0" type="line"/>
      <point x="603" y="148" type="line"/>
      <point x="185" y="740" type="line"/>
    </contour>
    <contour>
      <point x="524" y="0" type="line"/>
      <point x="652" y="0" type="line"/>
      <point x="652" y="740" type="line"/>
      <point x="524" y="740" type="line"/>
    </contour>
  </outline>
</glyph>
<glyph name="O" format="2">
  <advance width="781"/>
  <unicode hex="004F"/>
  <outline>
    <contour>
      <point x="372" y="-10" type="curve" smooth="yes"/>
      <point x="408" y="-10" type="line" smooth="yes"/>
      <point x="610" y="-10"/>
      <point x="737" y="105"/>
      <point x="737" y="372" type="curve" smooth="yes"/>
      <point x="737" y="638"/>
      <point x="610" y="750"/>
      <point x="408" y="750" type="curve" smooth="yes"/>
      <point x="372" y="750" type="line" smooth="yes"/>
      <point x="170" y="750"/>
      <point x="43" y="638"/>
      <point x="43" y="372" type="curve" smooth="yes"/>
      <point x="43" y="105"/>
      <point x="170" y="-10"/>
    </contour>
    <contour>
      <point x="379" y="117" type="line" smooth="yes"/>
      <point x="270" y="117"/>
      <point x="205" y="184"/>
      <point x="205" y="372" type="curve" smooth="yes"/>
      <point x="205" y="559"/>
      <point x="270" y="623"/>
      <point x="379" y="623" type="curve" smooth="yes"/>
      <point x="402" y="623" type="line" smooth="yes"/>
      <point x="511" y="623"/>
      <point x="576" y="559"/>
      <point x="576" y="372" type="curve" smooth="yes"/>
      <point x="576" y="184"/>
      <point x="511" y="117"/>
      <point x="402" y="117" type="curve" smooth="yes"/>
    </contour>
  </outline>
</glyph>
<glyph name="P" format="2">
  <advance width="645"/>
  <unicode hex="0050"/>
  <outline>
    <contour>
      <point x="58" y="0" type="line"/>
      <point x="218" y="0" type="line"/>
      <point x="218" y="740" type="line"/>
      <point x="58" y="740" type="line"/>
    </contour>
    <contour>
      <point x="170" y="612" type="line"/>
      <point x="319" y="612" type="line" smooth="yes"/>
      <point x="427" y="612"/>
      <point x="471" y="552"/>
      <point x="471" y="451" type="curve" smooth="yes"/>
      <point x="471" y="349"/>
      <point x="427" y="290"/>
      <point x="319" y="290" type="curve" smooth="yes"/>
      <point x="170" y="290" type="line"/>
      <point x="170" y="162" type="line"/>
      <point x="318" y="162" type="line" smooth="yes"/>
      <point x="545" y="162"/>
      <point x="618" y="277"/>
      <point x="618" y="451" type="curve" smooth="yes"/>
      <point x="618" y="626"/>
      <point x="545" y="740"/>
      <point x="318" y="740" type="curve" smooth="yes"/>
      <point x="170" y="740" type="line"/>
    </contour>
  </outline>
</glyph>
<glyph name="Q" format="2">
  <advance width="781"/>
  <unicode hex="0051"/>
  <outline>
    <contour>
      <point x="419" y="-130" type="line"/>
      <point x="579" y="-130" type="line"/>
      <point x="473" y="76" type="line"/>
      <point x="329" y="65" type="line"/>
    </contour>
    <component base="O"/>
  </outline>
</glyph>
<glyph name="R" format="2">
  <advance width="661"/>
  <unicode hex="0052"/>
  <outline>
    <contour>
      <point x="459" y="0" type="line"/>
      <point x="625" y="0" type="line"/>
      <point x="549" y="149" type="line" smooth="yes"/>
      <point x="517" y="203"/>
      <point x="488" y="230"/>
      <point x="443" y="230" type="curve"/>
      <point x="348" y="230" type="line"/>
    </contour>
    <contour>
      <point x="58" y="0" type="line"/>
      <point x="218" y="0" type="line"/>
      <point x="218" y="740" type="line"/>
      <point x="58" y="740" type="line"/>
    </contour>
    <contour>
      <point x="170" y="612" type="line"/>
      <point x="324" y="612" type="line" smooth="yes"/>
      <point x="431" y="612"/>
      <point x="473" y="552"/>
      <point x="473" y="451" type="curve" smooth="yes"/>
      <point x="473" y="349"/>
      <point x="431" y="290"/>
      <point x="324" y="290" type="curve" smooth="yes"/>
      <point x="170" y="290" type="line"/>
      <point x="170" y="187" type="line"/>
      <point x="324" y="187" type="line" smooth="yes"/>
      <point x="545" y="187"/>
      <point x="621" y="297"/>
      <point x="621" y="463" type="curve" smooth="yes"/>
      <point x="621" y="630"/>
      <point x="541" y="740"/>
      <point x="321" y="740" type="curve" smooth="yes"/>
      <point x="170" y="740" type="line"/>
    </contour>
  </outline>
</glyph>
<glyph name="S" format="2">
  <advance width="653"/>
  <unicode hex="0053"/>
  <outline>
    <contour>
      <point x="609" y="199" type="curve" smooth="yes"/>
      <point x="609" y="337"/>
      <point x="531" y="392"/>
      <point x="382" y="429" type="curve" smooth="yes"/>
      <point x="304" y="450" type="line" smooth="yes"/>
      <point x="214" y="477"/>
      <point x="185" y="503"/>
      <point x="185" y="550" type="curve" smooth="yes"/>
      <point x="185" y="596"/>
      <point x="225" y="630"/>
      <point x="320" y="630" type="curve" smooth="yes"/>
      <point x="361" y="630" type="line" smooth="yes"/>
      <point x="447" y="630"/>
      <point x="521" y="617"/>
      <point x="580" y="595" type="curve"/>
      <point x="605" y="710" type="line"/>
      <point x="545" y="732"/>
      <point x="459" y="750"/>
      <point x="379" y="750" type="curve" smooth="yes"/>
      <point x="348" y="750" type="line" smooth="yes"/>
      <point x="146" y="750"/>
      <point x="51" y="668"/>
      <point x="52" y="535" type="curve" smooth="yes"/>
      <point x="52" y="408"/>
      <point x="135" y="350"/>
      <point x="277" y="312" type="curve" smooth="yes"/>
      <point x="354" y="290" type="line" smooth="yes"/>
      <point x="447" y="260"/>
      <point x="475" y="240"/>
      <point x="475" y="191" type="curve" smooth="yes"/>
      <point x="475" y="145"/>
      <point x="433" y="110"/>
      <point x="331" y="110" type="curve" smooth="yes"/>
      <point x="292" y="110" type="line" smooth="yes"/>
      <point x="201" y="110"/>
      <point x="122" y="123"/>
      <point x="57" y="148" type="curve"/>
      <point x="33" y="32" type="line"/>
      <point x="98" y="9"/>
      <point x="192" y="-10"/>
      <point x="274" y="-10" type="curve" smooth="yes"/>
      <point x="307" y="-10" type="line" smooth="yes"/>
      <point x="531" y="-10"/>
      <point x="610" y="80"/>
    </contour>
  </outline>
</glyph>
<glyph name="T" format="2">
  <advance width="647"/>
  <unicode hex="0054"/>
  <outline>
    <contour>
      <point x="244" y="0" type="line"/>
      <point x="404" y="0" type="line"/>
      <point x="404" y="740" type="line"/>
      <point x="244" y="740" type="line"/>
    </contour>
    <contour>
      <point x="27" y="614" type="line"/>
      <point x="620" y="614" type="line"/>
      <point x="620" y="740" type="line"/>
      <point x="27" y="740" type="line"/>
    </contour>
  </outline>
</glyph>
<glyph name="U" format="2">
  <advance width="712"/>
  <unicode hex="0055"/>
  <outline>
    <contour>
      <point x="356" y="-10" type="curve" smooth="yes"/>
      <point x="550" y="-10"/>
      <point x="652" y="76"/>
      <point x="652" y="274" type="curve" smooth="yes"/>
      <point x="652" y="740" type="line"/>
      <point x="491" y="740" type="line"/>
      <point x="491" y="258" type="line" smooth="yes"/>
      <point x="491" y="155"/>
      <point x="441" y="120"/>
      <point x="356" y="120" type="curve" smooth="yes"/>
      <point x="272" y="120"/>
      <point x="221" y="155"/>
      <point x="221" y="258" type="curve" smooth="yes"/>
      <point x="221" y="740" type="line"/>
      <point x="60" y="740" type="line"/>
      <point x="60" y="274" type="line" smooth="yes"/>
      <point x="60" y="76"/>
      <point x="160" y="-10"/>
    </contour>
  </outline>
</glyph>
<glyph name="V" format="2">
  <advance width="675"/>
  <unicode hex="0056"/>
  <outline>
    <contour>
      <point x="655" y="740" type="line"/>
      <point x="523" y="740" type="line"/>
      <point x="347" y="0" type="line"/>
      <point x="463" y="0" type="line"/>
    </contour>
    <contour>
      <point x="195" y="740" type="line"/>
      <point x="19" y="740" type="line"/>
      <point x="212" y="0" type="line"/>
      <point x="376" y="0" type="line"/>
    </contour>
    <contour>
      <point x="430" y="127" type="line"/>
      <point x="269" y="127" type="line"/>
      <point x="269" y="0" type="line"/>
      <point x="430" y="0" type="line"/>
    </contour>
  </outline>
</glyph>
<glyph name="W" format="2">
  <advance width="807"/>
  <unicode hex="0057"/>
  <outline>
    <contour>
      <point x="787" y="740" type="line"/>
      <point x="649" y="740" type="line"/>
      <point x="550" y="145" type="line"/>
      <point x="570" y="145" type="line"/>
      <point x="466" y="740" type="line"/>
      <point x="357" y="740" type="line"/>
      <point x="258" y="144" type="line"/>
      <point x="279" y="144" type="line"/>
      <point x="174" y="740" type="line"/>
      <point x="20" y="740" type="line"/>
      <point x="157" y="0" type="line"/>
      <point x="308" y="0" type="line"/>
      <point x="405" y="554" type="line"/>
      <point x="381" y="554" type="line"/>
      <point x="489" y="0" type="line"/>
      <point x="653" y="0" type="line"/>
    </contour>
  </outline>
</glyph>
<glyph name="X" format="2">
  <advance width="657"/>
  <unicode hex="0058"/>
  <outline>
    <contour>
      <point x="449" y="0" type="line"/>
      <point x="639" y="0" type="line"/>
      <point x="390" y="409" type="line"/>
      <point x="213" y="740" type="line"/>
      <point x="24" y="740" type="line"/>
      <point x="264" y="346" type="line"/>
    </contour>
    <contour>
      <point x="19" y="0" type="line"/>
      <point x="154" y="0" type="line"/>
      <point x="316" y="327" type="line"/>
      <point x="408" y="340" type="line"/>
      <point x="632" y="740" type="line"/>
      <point x="497" y="740" type="line"/>
      <point x="338" y="430" type="line"/>
      <point x="245" y="411" type="line"/>
    </contour>
  </outline>
</glyph>
<glyph name="Y" format="2">
  <advance width="654"/>
  <unicode hex="0059"/>
  <outline>
    <contour>
      <point x="636" y="740" type="line"/>
      <point x="509" y="740" type="line"/>
      <point x="306" y="206" type="line"/>
      <point x="406" y="202" type="line"/>
    </contour>
    <contour>
      <point x="193" y="740" type="line"/>
      <point x="18" y="740" type="line"/>
      <point x="248" y="202" type="line"/>
      <point x="393" y="206" type="line"/>
    </contour>
    <contour>
      <point x="407" y="264" type="line"/>
      <point x="247" y="264" type="line"/>
      <point x="247" y="0" type="line"/>
      <point x="407" y="0" type="line"/>
    </contour>
  </outline>
</glyph>
<glyph name="Z" format="2">
  <advance width="662"/>
  <unicode hex="005A"/>
  <outline>
    <contour>
      <point x="58" y="124" type="line"/>
      <point x="232" y="102" type="line"/>
      <point x="605" y="616" type="line"/>
      <point x="430" y="638" type="line"/>
    </contour>
    <contour>
      <point x="58" y="616" type="line"/>
      <point x="605" y="616" type="line"/>
      <point x="605" y="740" type="line"/>
      <point x="58" y="740" type="line"/>
    </contour>
    <contour>
      <point x="58" y="0" type="line"/>
      <point x="605" y="0" type="line"/>
      <point x="605" y="124" type="line"/>
      <point x="58" y="124" type="line"/>
    </contour>
  </outline>
</glyph>
<glyph name="I.narrow" format="2">
  <advance width="275"/>
  <outline>
    <contour>
      <point x="58" y="0" type="line"/>
      <point x="218" y="0" type="line"/>
      <point x="218" y="740" type="line"/>
      <point x="58" y="740" type="line"/>
    </contour>
  </outline>
</glyph>
